<?xml version="1.0" encoding="UTF-8" standalone="no"?>
<!DOCTYPE svg PUBLIC "-//W3C//DTD SVG 1.1//EN"
 "http://www.w3.org/Graphics/SVG/1.1/DTD/svg11.dtd">
<!-- Generated by graphviz version 2.40.1 (20161225.0304)
 -->
<!-- Title: %3 Pages: 1 -->
<svg width="458pt" height="45pt"
 viewBox="0.00 0.00 458.00 45.00" xmlns="http://www.w3.org/2000/svg" xmlns:xlink="http://www.w3.org/1999/xlink">
<g id="graph0" class="graph" transform="scale(1 1) rotate(0) translate(4 41)">
<title>%3</title>
<polygon fill="#ffffff" stroke="transparent" points="-4,4 -4,-41 454,-41 454,4 -4,4"/>
<!-- 139795536253328 -->
<g id="node1" class="node">
<title>139795536253328</title>
<polygon fill="none" stroke="#000000" points="288,-.5 288,-36.5 450,-36.5 450,-.5 288,-.5"/>
<text text-anchor="middle" x="328" y="-14.8" font-family="Times,serif" font-size="14.00" fill="#000000">data 4.0000</text>
<polyline fill="none" stroke="#000000" points="368,-.5 368,-36.5 "/>
<text text-anchor="middle" x="409" y="-14.8" font-family="Times,serif" font-size="14.00" fill="#000000">grad 1.0000</text>
</g>
<!-- 139795536253328+ -->
<g id="node2" class="node">
<title>139795536253328+</title>
<ellipse fill="none" stroke="#000000" cx="225" cy="-18.5" rx="27" ry="18"/>
<text text-anchor="middle" x="225" y="-14.8" font-family="Times,serif" font-size="14.00" fill="#000000">+</text>
</g>
<!-- 139795536253328+&#45;&gt;139795536253328 -->
<g id="edge1" class="edge">
<title>139795536253328+&#45;&gt;139795536253328</title>
<path fill="none" stroke="#000000" d="M252.0853,-18.5C259.7436,-18.5 268.5307,-18.5 277.7739,-18.5"/>
<polygon fill="#000000" stroke="#000000" points="277.951,-22.0001 287.951,-18.5 277.951,-15.0001 277.951,-22.0001"/>
</g>
<!-- 139795568098272 -->
<g id="node3" class="node">
<title>139795568098272</title>
<polygon fill="none" stroke="#000000" points="0,-.5 0,-36.5 162,-36.5 162,-.5 0,-.5"/>
<text text-anchor="middle" x="40" y="-14.8" font-family="Times,serif" font-size="14.00" fill="#000000">data 2.0000</text>
<polyline fill="none" stroke="#000000" points="80,-.5 80,-36.5 "/>
<text text-anchor="middle" x="121" y="-14.8" font-family="Times,serif" font-size="14.00" fill="#000000">grad 2.0000</text>
</g>
<!-- 139795568098272&#45;&gt;139795536253328+ -->
<g id="edge2" class="edge">
<title>139795568098272&#45;&gt;139795536253328+</title>
<path fill="none" stroke="#000000" d="M162.2584,-18.5C171.0303,-18.5 179.6157,-18.5 187.4822,-18.5"/>
<polygon fill="#000000" stroke="#000000" points="187.7137,-22.0001 197.7136,-18.5 187.7136,-15.0001 187.7137,-22.0001"/>
</g>
</g>
</svg>
